<svg width="9" height="14" viewBox="0 0 9 14" fill="none" xmlns="http://www.w3.org/2000/svg">
<path d="M7.00173 13.0606C7.31131 13.3357 7.78537 13.3079 8.06056 12.9983C8.33575 12.6887 8.30786 12.2146 7.99827 11.9394L7.00173 13.0606ZM1.5 7.16667L0.985033 6.62141C0.832153 6.76579 0.746911 6.96773 0.750085 7.17799C0.75326 7.38825 0.844559 7.58752 1.00173 7.72722L1.5 7.16667ZM8.01497 2.04526C8.31611 1.76085 8.32967 1.28617 8.04526 0.985032C7.76085 0.683893 7.28617 0.670331 6.98503 0.954741L8.01497 2.04526ZM7.99827 11.9394L1.99827 6.60611L1.00173 7.72722L7.00173 13.0606L7.99827 11.9394ZM2.01497 7.71193L8.01497 2.04526L6.98503 0.954741L0.985033 6.62141L2.01497 7.71193Z" fill="#050D2D"/>
</svg>
