<svg width="100%" viewBox="0 0 19 25" fill="none" xmlns="http://www.w3.org/2000/svg">
<path d="M3.375 4.6875C3.375 4.2731 3.53962 3.87567 3.83265 3.58265C4.12567 3.28962 4.5231 3.125 4.9375 3.125H14.3125C14.7269 3.125 15.1243 3.28962 15.4174 3.58265C15.7104 3.87567 15.875 4.2731 15.875 4.6875V6.25C15.875 6.6644 15.7104 7.06183 15.4174 7.35485C15.1243 7.64788 14.7269 7.8125 14.3125 7.8125H4.9375C4.5231 7.8125 4.12567 7.64788 3.83265 7.35485C3.53962 7.06183 3.375 6.6644 3.375 6.25V4.6875ZM4.9375 4.6875V6.25H14.3125V4.6875H4.9375ZM0.25 3.125V21.875C0.25 22.7038 0.57924 23.4987 1.16529 24.0847C1.75134 24.6708 2.5462 25 3.375 25H18.2188C18.426 25 18.6247 24.9177 18.7712 24.7712C18.9177 24.6247 19 24.426 19 24.2188C19 24.0115 18.9177 23.8128 18.7712 23.6663C18.6247 23.5198 18.426 23.4375 18.2188 23.4375H3.375C2.9606 23.4375 2.56317 23.2729 2.27015 22.9799C1.97712 22.6868 1.8125 22.2894 1.8125 21.875H17.4375C17.8519 21.875 18.2493 21.7104 18.5424 21.4174C18.8354 21.1243 19 20.7269 19 20.3125V3.125C19 2.2962 18.6708 1.50134 18.0847 0.915291C17.4987 0.32924 16.7038 0 15.875 0H3.375C2.5462 0 1.75134 0.32924 1.16529 0.915291C0.57924 1.50134 0.25 2.2962 0.25 3.125ZM15.875 1.5625C16.2894 1.5625 16.6868 1.72712 16.9799 2.02015C17.2729 2.31317 17.4375 2.7106 17.4375 3.125V20.3125H1.8125V3.125C1.8125 2.7106 1.97712 2.31317 2.27015 2.02015C2.56317 1.72712 2.9606 1.5625 3.375 1.5625H15.875Z"/>
</svg>
