<svg width="100%" viewBox="0 0 22 25" fill="none" xmlns="http://www.w3.org/2000/svg">
<path d="M19.3743 0.0718016C19.6108 -0.00203508 19.8614 -0.0192243 20.1058 0.0216222C20.3502 0.0624687 20.5815 0.160206 20.7812 0.306944C20.9808 0.453682 21.1432 0.645308 21.2551 0.866353C21.367 1.0874 21.4254 1.33167 21.4256 1.57944V17.8885C21.4256 18.7785 21.1251 19.6424 20.5728 20.3403C20.0204 21.0382 19.2487 21.5292 18.3825 21.7336C17.5163 21.9381 16.6064 21.8441 15.8003 21.4669C14.9942 21.0897 14.339 20.4514 13.941 19.6554C13.543 18.8593 13.4254 17.9522 13.6073 17.081C13.7892 16.2098 14.26 15.4255 14.9433 14.8552C15.6266 14.285 16.4824 13.9621 17.3721 13.939C18.2618 13.9159 19.1332 14.1938 19.8452 14.7278V6.32044L8.7829 9.77822V21.0492C8.7829 21.9392 8.4824 22.8031 7.93008 23.501C7.37776 24.1989 6.60598 24.6898 5.73978 24.8943C4.87359 25.0988 3.96373 25.0048 3.15761 24.6276C2.35149 24.2504 1.69635 23.6121 1.29833 22.816C0.90031 22.02 0.782727 21.1129 0.964633 20.2417C1.14654 19.3704 1.61728 18.5862 2.30058 18.0159C2.98388 17.4456 3.83971 17.1228 4.72941 17.0997C5.61912 17.0765 6.49057 17.3545 7.20257 17.8885V5.03721C7.20242 4.70024 7.30999 4.37204 7.50957 4.10053C7.70915 3.82902 7.9903 3.62841 8.31196 3.52799L19.3743 0.0718016ZM8.7829 8.12202L19.8452 4.66583V1.57944L8.7829 5.03721V8.12202ZM4.83207 18.6787C4.20337 18.6787 3.60042 18.9284 3.15587 19.373C2.71131 19.8175 2.46156 20.4205 2.46156 21.0492C2.46156 21.6779 2.71131 22.2808 3.15587 22.7254C3.60042 23.1699 4.20337 23.4197 4.83207 23.4197C5.46076 23.4197 6.06371 23.1699 6.50826 22.7254C6.95282 22.2808 7.20257 21.6779 7.20257 21.0492C7.20257 20.4205 6.95282 19.8175 6.50826 19.373C6.06371 18.9284 5.46076 18.6787 4.83207 18.6787ZM15.1042 17.8885C15.1042 18.5172 15.354 19.1201 15.7985 19.5647C16.2431 20.0092 16.846 20.259 17.4747 20.259C18.1034 20.259 18.7064 20.0092 19.1509 19.5647C19.5955 19.1201 19.8452 18.5172 19.8452 17.8885C19.8452 17.2598 19.5955 16.6568 19.1509 16.2123C18.7064 15.7677 18.1034 15.518 17.4747 15.518C16.846 15.518 16.2431 15.7677 15.7985 16.2123C15.354 16.6568 15.1042 17.2598 15.1042 17.8885Z" />
</svg>
