<svg viewBox="0 0 260 230" fill="none" xmlns="http://www.w3.org/2000/svg">
<g>
<g filter="url(#filter0_d_112_177)">
<ellipse cx="130" cy="115" rx="130" ry="115" fill="url(#paint1_linear_112_177)"/>
<ellipse cx="130" cy="115" rx="130" ry="115" fill="url(#paint2_linear_112_177)" fill-opacity="0.2"/>
</g>
<circle cx="213" cy="120" r="30" stroke="#EBF4FD" stroke-width="4"/>
<line x1="183" y1="118" x2="183" y2="77" stroke="#EBF4FD" stroke-width="4" stroke-linecap="round"/>
<path d="M175 122C175 139.673 160.673 154 143 154C125.327 154 111 139.673 111 122" stroke="#EBF4FD" stroke-width="4" stroke-linecap="round"/>
<circle cx="73" cy="120" r="30" stroke="#EBF4FD" stroke-width="4"/>
<line x1="43" y1="118" x2="43" y2="77" stroke="#EBF4FD" stroke-width="4" stroke-linecap="round"/>
<g filter="url(#filter1_d_112_177)">
<path d="M75.205 172.098C74.0568 177.5 64.3673 180.018 53.563 177.721C42.7586 175.425 34.9308 169.184 36.0791 163.781C37.2274 158.379 46.9169 155.862 57.7212 158.158C68.5255 160.455 76.3533 166.696 75.205 172.098Z" fill="url(#paint3_linear_112_177)"/>
</g>
<g filter="url(#filter2_d_112_177)">
<path d="M235.264 164.467C236.223 169.906 228.182 175.87 217.304 177.788C206.426 179.706 196.83 176.852 195.871 171.413C194.912 165.974 202.953 160.01 213.831 158.092C216.443 157.631 218.981 157.446 221.343 157.505C228.819 157.693 234.535 160.334 235.264 164.467Z" fill="url(#paint4_linear_112_177)"/>
</g>
<path d="M71.8141 103.578C71.9041 103.474 72.011 103.391 72.1287 103.334C72.2464 103.277 72.3726 103.248 72.5 103.248C72.6274 103.248 72.7536 103.277 72.8713 103.334C72.989 103.391 73.0959 103.474 73.1859 103.578C73.6916 104.168 75.9139 106.841 78.0161 110.335C80.0892 113.78 82.1875 118.246 82.1875 122.375C82.1875 126.38 81.0696 129.496 79.2503 131.611C77.4387 133.719 75.0013 134.75 72.5 134.75C69.9987 134.75 67.5613 133.719 65.7497 131.611C63.9304 129.496 62.8125 126.382 62.8125 122.375C62.8125 118.246 64.9108 113.78 66.9839 110.337C68.4355 107.938 70.0508 105.678 71.8141 103.578V103.578Z" fill="white"/>
<path d="M212.814 103.578C212.904 103.474 213.011 103.391 213.129 103.334C213.246 103.277 213.373 103.248 213.5 103.248C213.627 103.248 213.754 103.277 213.871 103.334C213.989 103.391 214.096 103.474 214.186 103.578C214.692 104.168 216.914 106.841 219.016 110.335C221.089 113.78 223.188 118.246 223.188 122.375C223.188 126.38 222.07 129.496 220.25 131.611C218.439 133.719 216.001 134.75 213.5 134.75C210.999 134.75 208.561 133.719 206.75 131.611C204.93 129.496 203.812 126.382 203.812 122.375C203.812 118.246 205.911 113.78 207.984 110.337C209.436 107.938 211.051 105.678 212.814 103.578V103.578Z" fill="white"/>
</g>
<defs>
<filter id="filter0_d_112_177" x="-4" y="0" width="268" height="238" filterUnits="userSpaceOnUse" color-interpolation-filters="sRGB">
<feFlood flood-opacity="0" result="BackgroundImageFix"/>
<feColorMatrix in="SourceAlpha" type="matrix" values="0 0 0 0 0 0 0 0 0 0 0 0 0 0 0 0 0 0 127 0" result="hardAlpha"/>
<feOffset dy="4"/>
<feGaussianBlur stdDeviation="2"/>
<feComposite in2="hardAlpha" operator="out"/>
<feColorMatrix type="matrix" values="0 0 0 0 0 0 0 0 0 0 0 0 0 0 0 0 0 0 0.25 0"/>
<feBlend mode="normal" in2="BackgroundImageFix" result="effect1_dropShadow_112_177"/>
<feBlend mode="normal" in="SourceGraphic" in2="effect1_dropShadow_112_177" result="shape"/>
</filter>
<filter id="filter1_d_112_177" x="26.9673" y="151.308" width="55.3495" height="37.2628" filterUnits="userSpaceOnUse" color-interpolation-filters="sRGB">
<feFlood flood-opacity="0" result="BackgroundImageFix"/>
<feColorMatrix in="SourceAlpha" type="matrix" values="0 0 0 0 0 0 0 0 0 0 0 0 0 0 0 0 0 0 127 0" result="hardAlpha"/>
<feOffset dx="-1" dy="2"/>
<feGaussianBlur stdDeviation="4"/>
<feComposite in2="hardAlpha" operator="out"/>
<feColorMatrix type="matrix" values="0 0 0 0 0 0 0 0 0 0 0 0 0 0 0 0 0 0 0.15 0"/>
<feBlend mode="normal" in2="BackgroundImageFix" result="effect1_dropShadow_112_177"/>
<feBlend mode="normal" in="SourceGraphic" in2="effect1_dropShadow_112_177" result="shape"/>
</filter>
<filter id="filter2_d_112_177" x="189.794" y="153.494" width="55.5475" height="36.8907" filterUnits="userSpaceOnUse" color-interpolation-filters="sRGB">
<feFlood flood-opacity="0" result="BackgroundImageFix"/>
<feColorMatrix in="SourceAlpha" type="matrix" values="0 0 0 0 0 0 0 0 0 0 0 0 0 0 0 0 0 0 127 0" result="hardAlpha"/>
<feOffset dx="2" dy="4"/>
<feGaussianBlur stdDeviation="4"/>
<feComposite in2="hardAlpha" operator="out"/>
<feColorMatrix type="matrix" values="0 0 0 0 0 0 0 0 0 0 0 0 0 0 0 0 0 0 0.15 0"/>
<feBlend mode="normal" in2="BackgroundImageFix" result="effect1_dropShadow_112_177"/>
<feBlend mode="normal" in="SourceGraphic" in2="effect1_dropShadow_112_177" result="shape"/>
</filter>
<linearGradient id="paint0_linear_112_177" x1="130" y1="0" x2="130" y2="230" gradientUnits="userSpaceOnUse">
<stop stop-color="#A8C8E4"/>
<stop offset="1" stop-color="#2A669D"/>
</linearGradient>
<linearGradient id="paint1_linear_112_177" x1="97" y1="-33" x2="210.5" y2="226.5" gradientUnits="userSpaceOnUse">
<stop stop-color="#E7BFFF"/>
<stop offset="1" stop-color="#74A3FF"/>
</linearGradient>
<linearGradient id="paint2_linear_112_177" x1="145" y1="154" x2="112.5" y2="242" gradientUnits="userSpaceOnUse">
<stop stop-color="#9EBFFF"/>
<stop offset="1" stop-color="#133982"/>
</linearGradient>
<linearGradient id="paint3_linear_112_177" x1="60.5" y1="161.5" x2="51.5" y2="176.5" gradientUnits="userSpaceOnUse">
<stop stop-color="#FDE6F9"/>
<stop offset="1" stop-color="#ECB2D1"/>
</linearGradient>
<linearGradient id="paint4_linear_112_177" x1="208.403" y1="159.94" x2="215.903" y2="173.94" gradientUnits="userSpaceOnUse">
<stop stop-color="#FDE6F9"/>
<stop offset="0.0001" stop-color="#FFE4FF"/>
<stop offset="1" stop-color="#ECB2D1"/>
</linearGradient>
</defs>
</svg>
